<svg
      xmlns="http://www.w3.org/2000/svg"
      xmlnsXlink="http://www.w3.org/1999/xlink"
      width="286.303"
      height="400.677"
      version="1"
    >
      <defs>
        <linearGradient id="linearGradient3780">
          <stop offset="0" stopColor="#fff" stopOpacity="0"></stop>
          <stop offset="0.391" stopColor="#fff" stopOpacity="0.314"></stop>
          <stop offset="0.559" stopColor="#fff" stopOpacity="0.627"></stop>
          <stop offset="0.774" stopColor="#fff" stopOpacity="0.314"></stop>
          <stop offset="1" stopColor="#fff" stopOpacity="0"></stop>
        </linearGradient>
        <linearGradient id="linearGradient3768">
          <stop offset="0" stopColor="#000" stopOpacity="0"></stop>
          <stop offset="0.549" stopColor="#000" stopOpacity="0"></stop>
          <stop offset="1" stopColor="#000" stopOpacity="0.978"></stop>
        </linearGradient>
        <linearGradient id="linearGradient3641">
          <stop offset="0" stopColor="#000" stopOpacity="0"></stop>
          <stop offset="0.517" stopColor="#000" stopOpacity="0"></stop>
          <stop offset="1" stopColor="#000" stopOpacity="0.686"></stop>
        </linearGradient>
        <linearGradient id="linearGradient3866">
          <stop offset="0" stopColor="#fff" stopOpacity="0"></stop>
          <stop offset="0.211" stopColor="#fff" stopOpacity="0.314"></stop>
          <stop offset="0.275" stopColor="#fff" stopOpacity="0.627"></stop>
          <stop offset="0.295" stopColor="#fff" stopOpacity="0.314"></stop>
          <stop offset="0.358" stopColor="#fff" stopOpacity="0"></stop>
          <stop offset="1" stopColor="#fff" stopOpacity="0"></stop>
        </linearGradient>
        <linearGradient id="linearGradient3748">
          <stop offset="0" stopColor="#b4551e" stopOpacity="1"></stop>
          <stop offset="1" stopColor="#501616" stopOpacity="1"></stop>
        </linearGradient>
        <linearGradient id="linearGradient3726">
          <stop offset="0" stopColor="#fff" stopOpacity="0"></stop>
          <stop offset="0.257" stopColor="#fff" stopOpacity="0.314"></stop>
          <stop offset="0.282" stopColor="#fff" stopOpacity="0.627"></stop>
          <stop offset="0.363" stopColor="#fff" stopOpacity="0.314"></stop>
          <stop offset="1" stopColor="#fff" stopOpacity="0"></stop>
        </linearGradient>
        <linearGradient id="linearGradient3709">
          <stop offset="0" stopColor="#fff" stopOpacity="0"></stop>
          <stop offset="1" stopColor="#fff" stopOpacity="0.686"></stop>
        </linearGradient>
        <linearGradient id="linearGradient3689">
          <stop offset="0" stopColor="#fff" stopOpacity="0"></stop>
          <stop offset="0.29" stopColor="#fff" stopOpacity="0.51"></stop>
          <stop offset="1" stopColor="#fff" stopOpacity="0"></stop>
        </linearGradient>
        <radialGradient
          id="radialGradient3681"
          cx="365.421"
          cy="528.426"
          r="18.887"
          fx="365.421"
          fy="528.426"
          gradientTransform="matrix(3.2927 .01397 -.07983 18.82191 -788.33 -9434.16)"
          gradientUnits="userSpaceOnUse"
          xlinkHref="#linearGradient3780"
        ></radialGradient>
        <linearGradient
          id="linearGradient3697"
          x1="367.461"
          x2="403.118"
          y1="529.82"
          y2="529.82"
          gradientUnits="userSpaceOnUse"
          xlinkHref="#linearGradient3689"
        ></linearGradient>
        <linearGradient
          id="linearGradient3715"
          x1="67.5"
          x2="216.719"
          y1="98.219"
          y2="98.219"
          gradientUnits="userSpaceOnUse"
          xlinkHref="#linearGradient3709"
        ></linearGradient>
        <radialGradient
          id="radialGradient3732"
          cx="345.565"
          cy="238.452"
          r="143.152"
          fx="345.565"
          fy="238.452"
          gradientTransform="matrix(2.75242 -2.5379 3.26706 3.54322 -1317.978 256.512)"
          gradientUnits="userSpaceOnUse"
          xlinkHref="#linearGradient3726"
        ></radialGradient>
        <radialGradient
          id="radialGradient3754"
          cx="336.611"
          cy="349.34"
          r="32.363"
          fx="336.611"
          fy="349.34"
          gradientTransform="matrix(2.01748 -.00782 .00482 1.21332 -344.08 -70.417)"
          gradientUnits="userSpaceOnUse"
          xlinkHref="#linearGradient3748"
        ></radialGradient>
        <radialGradient
          id="radialGradient3864"
          cx="354.243"
          cy="282.994"
          r="143.152"
          fx="354.243"
          fy="282.994"
          gradientTransform="matrix(1.69659 1.32581 -2.55044 3.2637 479.012 -1128.9)"
          gradientUnits="userSpaceOnUse"
          xlinkHref="#linearGradient3866"
        ></radialGradient>
        <radialGradient
          id="radialGradient3651"
          cx="142.109"
          cy="85.089"
          r="74.609"
          fx="142.109"
          fy="85.089"
          gradientTransform="matrix(1.64447 -.00806 .00372 .76 -91.903 26.21)"
          gradientUnits="userSpaceOnUse"
          xlinkHref="#linearGradient3641"
        ></radialGradient>
        <linearGradient
          id="linearGradient3766"
          x1="341.737"
          x2="375.512"
          y1="529.701"
          y2="529.701"
          gradientUnits="userSpaceOnUse"
          xlinkHref="#linearGradient3768"
        ></linearGradient>
      </defs>
      <g
        fillOpacity="1"
        stroke="none"
        display="inline"
        transform="translate(-224.5 -49.617)"
      >
        <path
          fill="#fff"
          d="M142.969 0C101.245 0 59.64 13.864 29.906 47.719.172 81.573-7.022 138.996 6.656 180.188c17.258 51.97 61.072 118.57 116.938 146.062-10.487 25.122-20.264 81.008-14.781 162.313 8.698 129.002 22.878 160.793 29.874 160.406 1.89-.105 4.102-12.764 4.282-20.313-.025 10.803-.332 22.366 3.75 23.938 4.928 1.898 16.714-27.742 30.281-163.032 5.15-51.35-2.808-129.2-13.313-163.968 55.226-27.891 98.475-93.852 115.594-145.406 13.678-41.192 8.076-96.803-23.25-132.47C227.888 15.677 184.693 0 142.97 0zM67.438 70.906l75.53 75.531 73.782-73.78c11.802 10.12 20.545 23.81 25.563 41.468 12.726 44.786-.864 73.656-20.938 106-28.782 46.375-55.6 73.461-78.313 90.313-22.711-16.852-49.624-43.938-78.406-90.313-20.074-32.344-35.287-66.06-23.937-106 5.495-19.337 14.646-33.329 26.718-43.219z"
          transform="translate(224.5 49.617)"
        ></path>
        <path
          fill="#fff"
          d="M142.969 0v146.438l73.781-73.782c11.802 10.121 20.545 23.81 25.563 41.469 12.726 44.786-.864 73.656-20.938 106-28.782 46.375-55.6 73.461-78.313 90.313l-.093 318.218c-.025 10.803-.332 22.366 3.75 23.938 4.928 1.898 16.714-27.742 30.281-163.032 5.15-51.35-2.808-129.2-13.312-163.968 55.225-27.891 98.474-93.852 115.593-145.406 13.679-41.192 8.076-96.803-23.25-132.47C227.888 15.677 184.693 0 142.97 0z"
          transform="translate(224.5 49.617)"
        ></path>
        <path
          fill="#00f"
          d="M367.469 160.68L314.5 107.71c-7.533 2.859-14.441 6.56-20.625 11.282l-14.25-44c-7.3 4.98-14.196 10.776-20.625 17.406l15.688 48.531c4.768-8.21 10.56-14.93 17.25-20.406l75.531 75.531V160.68zm-134.594-25.22c-2.925 8.41-5.083 17.178-6.469 26.094l35.063 24.938c.35-7.37 1.531-14.941 3.75-22.75.417-1.468.885-2.906 1.344-4.313l-33.688-23.968zm-7.781 64.032c.767 8.817 2.28 17.372 4.563 25.406l38.343 2.75c-2.917-8.287-5.018-16.747-6-25.5l-36.906-2.656zm14.563 52.187c3.716 8.437 8.02 17.038 12.843 25.625l42.781 2.063a498.165 498.165 0 01-6.125-9.625 322.06 322.06 0 01-9.406-16.156l-40.094-1.907zm27.156 48.719c5.882 8.608 12.259 17.018 19.094 25h44.25c-6.577-7.367-13.334-15.649-20.25-25h-43.094zm84.094 45.969l-41.5 3c9.955 8.812 20.537 16.55 31.656 22.781l1.375 20.875 25.031 24.969.094-57.938c-5.33-3.954-10.895-8.489-16.657-13.687zm-14.563 77.187c-1.409 9.634-2.576 20.293-3.375 32l34.5 34.5V454.68l-31.125-31.125zm-4.594 67.407c-.036 11.415.27 23.53.938 36.312l34.812 34.781v-35.406l-35.75-35.687zm3.719 75.718c1.203 14.49 2.46 27.501 3.781 39.157l28.25 28.218V598.68l-32.031-32zm9.344 79.344c6.873 40.498 14.015 52.804 18.375 52.563 1.89-.105 4.101-12.764 4.281-20.313l.031-9.594-22.687-22.656z"
          display="inline"
        ></path>
        <path
          fill="#00f"
          d="M450.844 72.43l-14.781 45.75c-5.11-3.685-10.707-6.788-16.75-9.344l-51.844 51.843v35.375l73.781-73.781a76.669 76.669 0 0114.406 16.469l16.282-50.281c-6.488-6.06-13.574-11.401-21.094-16.032zm50.469 59.812L465 158.054a103.479 103.479 0 011.813 5.688c2.075 7.301 3.457 14.18 4.219 20.719l37.406-26.594c-1.564-8.748-3.94-17.355-7.125-25.625zm8.812 66.844l-38.469 2.78c-.455 8.961-2.126 17.335-4.687 25.407l38.438-2.781c2.295-8.077 3.89-16.625 4.718-25.406zm-14.687 52.312l-39.938 1.938c-2.955 5.427-6.19 10.872-9.625 16.406a501.124 501.124 0 01-5.969 9.344l42.72-2.032c4.817-8.598 9.104-17.214 12.812-25.656zm-70.281 49c-6.908 9.351-13.654 17.633-20.22 25h44.094c6.835-7.981 13.212-16.393 19.094-25h-42.969zm-57.688 117.594l25.125-25.063.719-20.437c11.182-6.201 21.83-13.932 31.844-22.75l-41.344-3c-5.43 4.854-10.998 9.452-16.25 13.312l-.094 57.938zm0 72.062l33.688-33.687a624.242 624.242 0 00-3.375-32l-30.313 30.312v35.375zm.031 72l34.938-34.968c.662-11.275.812-23.444.531-35.907L367.5 526.648v35.406zm0 72l26.156-26.187c1.573-11.954 3.195-25.316 4.844-40.219l-31 31.031v35.375zm-.031 44.219c-.025 10.803-.332 22.365 3.75 23.938 3.133 1.206 9.033-10.356 16.406-53.688L367.5 668.679l-.031 9.594z"
          display="inline"
        ></path>
      </g>
      <g fillOpacity="1" stroke="none" display="inline">
        <path
          fill="url(#linearGradient3766)"
          d="M333.31 538.183c-10.395-154.175 34.148-217.013 34.158-151.822l.044 290.898c0 7.376-2.338 21.206-4.309 21.315-6.996.387-21.195-31.388-29.893-160.39z"
          display="inline"
          transform="translate(-224.5 -49.617)"
        ></path>
        <path
          fill="url(#radialGradient3681)"
          d="M333.31 538.183c-10.395-154.175 34.148-217.013 34.158-151.822l.044 290.898c0 7.376-2.338 21.206-4.309 21.315-6.996.387-21.195-31.388-29.893-160.39z"
          display="inline"
          transform="translate(-224.5 -49.617)"
        ></path>
        <path
          fill="url(#linearGradient3715)"
          d="M216.719 72.688c-1.293-1.109-2.572-2.228-3.938-3.25a80.305 80.305 0 00-6.156-4.157 85.759 85.759 0 00-6.594-3.656 92.706 92.706 0 00-7-3.156 101.807 101.807 0 00-7.406-2.625 113.69 113.69 0 00-7.813-2.125 127.44 127.44 0 00-8.187-1.625c-2.788-.467-5.626-.88-8.531-1.188-5.812-.616-11.875-.906-18.125-.906s-12.3.226-18.156.719c-5.856.493-11.493 1.245-16.907 2.312a122.947 122.947 0 00-7.969 1.844c-2.587.692-5.1 1.452-7.562 2.313a93.062 93.062 0 00-7.188 2.874 83.12 83.12 0 00-6.78 3.376 77.232 77.232 0 00-6.376 4c-1.569 1.092-3.049 2.317-4.531 3.53l75.469 75.47 73.75-73.75z"
          display="inline"
        ></path>
        <path
          fill="url(#linearGradient3697)"
          d="M367.522 380.361l-.044 296.898c-.002 11.077-.47 23.332 3.737 24.953 4.928 1.898 16.725-27.74 30.293-163.029 8.47-84.46-18.488-240.649-33.986-158.822z"
          display="inline"
          transform="translate(-224.5 -49.617)"
        ></path>
        <path
          fill="url(#radialGradient3732)"
          d="M367.478 49.617c-41.724 0-83.329 13.864-113.063 47.718-29.734 33.855-36.928 91.278-23.25 132.47 19.207 57.84 71.313 133.812 136.313 153.812 65-20 117.105-95.971 136.312-153.813 13.678-41.191 8.076-96.802-23.25-132.469-28.143-32.042-71.338-47.718-113.062-47.718zm0 50c50 0 86.617 19.338 99.343 64.125 12.727 44.786-.863 73.656-20.937 106-28.782 46.375-55.6 73.46-78.313 90.312-22.711-16.851-49.624-43.937-78.406-90.312-20.074-32.344-35.287-66.06-23.937-106 14.104-49.633 52.25-64.125 102.25-64.125z"
          display="inline"
          transform="translate(-224.5 -49.617)"
        ></path>
        <path
          fill="url(#radialGradient3864)"
          d="M367.478 99.617c50 0 86.617 19.338 99.343 64.125 12.727 44.786-.863 73.656-20.937 106-28.782 46.375-55.6 73.46-78.313 90.312l-.093 23.563c65-20 117.105-95.971 136.312-153.813 13.678-41.191 8.076-96.802-23.25-132.469-28.143-32.042-71.338-47.718-113.062-47.718v50z"
          display="inline"
          transform="translate(-224.5 -49.617)"
        ></path>
        <path
          fill="url(#radialGradient3754)"
          fillRule="evenodd"
          d="M382.848 354.852c0 11.238-11.733 20.348-32.325 20.348-20.896 0-31.375-9.15-32.325-20.348-.954-11.238 6.987-20.292 32.325-20.349 25.337-.056 32.325 9.11 32.325 20.349z"
          display="inline"
          transform="matrix(1.16158 0 0 1.17625 -264.036 -86.808)"
        ></path>
        <path
          fill="url(#radialGradient3651)"
          d="M216.719 72.688c-1.293-1.109-2.572-2.228-3.938-3.25a80.305 80.305 0 00-6.156-4.157 85.759 85.759 0 00-6.594-3.656 92.706 92.706 0 00-7-3.156 101.807 101.807 0 00-7.406-2.625 113.69 113.69 0 00-7.813-2.125 127.44 127.44 0 00-8.187-1.625c-2.788-.467-5.626-.88-8.531-1.188-5.812-.616-11.875-.906-18.125-.906s-12.3.226-18.156.719c-5.856.493-11.493 1.245-16.907 2.312a122.947 122.947 0 00-7.969 1.844c-2.587.692-5.1 1.452-7.562 2.313a93.062 93.062 0 00-7.188 2.874 83.12 83.12 0 00-6.78 3.376 77.232 77.232 0 00-6.376 4c-1.569 1.092-3.049 2.317-4.531 3.53l21.284 21.285 107.706.664 20.229-20.23z"
          display="inline"
        ></path>
      </g>
    </svg>